<svg width="372.93125px" height="114.2px" xmlns="http://www.w3.org/2000/svg" viewBox="63.53437500000001 17.9 372.93125 114.2" style="background: rgba(0, 0, 0, 0);" preserveAspectRatio="xMidYMid"><defs><filter id="editing-extrusion" x="-100%" y="-100%" width="300%" height="300%"><feFlood result="color1" flood-color="#444"></feFlood><feConvolveMatrix order="8,8" divisor="1" kernelMatrix="1 0 0 0 0 0 0 0 0 1 0 0 0 0 0 0 0 0 1 0 0 0 0 0 0 0 0 1 0 0 0 0 0 0 0 0 1 0 0 0 0 0 0 0 0 1 0 0 0 0 0 0 0 0 1 0 0 0 0 0 0 0 0 1" in="SourceAlpha" result="extrude"></feConvolveMatrix><feComposite in="color1" in2="extrude" result="comp-extrude" operator="in"></feComposite><feOffset dx="4" dy="4" in="comp-extrude" result="offset-extrude"></feOffset><feMerge><feMergeNode in="offset-extrude"></feMergeNode><feMergeNode in="SourceGraphic"></feMergeNode></feMerge></filter></defs><g filter="url(#editing-extrusion)"><g transform="translate(118.15998649597168, 102.23000717163086)"><path d="M48.58-17.73L48.58-17.73Q48.58-8.70 42.88-3.97L42.88-3.97L42.88-3.97Q37.18 0.77 26.69 0.77L26.69 0.77L26.69 0.77Q16.19 0.77 10.46-3.97L10.46-3.97L10.46-3.97Q4.74-8.70 4.74-17.73L4.74-17.73L4.74-44.03L18.88-44.03L18.88-17.92L18.88-17.92Q18.88-14.21 20.86-12L20.86-12L20.86-12Q22.85-9.79 26.62-9.79L26.62-9.79L26.62-9.79Q30.40-9.79 32.42-12.03L32.42-12.03L32.42-12.03Q34.43-14.27 34.43-17.92L34.43-17.92L34.43-44.03L48.58-44.03L48.58-17.73ZM70.34 0L57.60 0L57.60-46.40L70.34-46.40L70.34 0ZM91.65 0L78.91 0L78.91-46.40L91.65-46.40L91.65 0ZM116.48-34.56L116.48-34.56Q124.22-34.56 129.09-31.97L129.09-31.97L129.09-31.97Q133.95-29.38 133.95-23.55L133.95-23.55L133.95-10.37L133.95-10.37Q133.95-9.28 134.46-8.58L134.46-8.58L134.46-8.58Q134.98-7.87 136-7.87L136-7.87L138.30-7.87L138.30-0.51L138.30-0.51Q138.11-0.38 137.31-0.10L137.31-0.10L137.31-0.10Q136.51 0.19 135.04 0.48L135.04 0.48L135.04 0.48Q133.57 0.77 131.65 0.77L131.65 0.77L131.65 0.77Q127.94 0.77 125.54-0.35L125.54-0.35L125.54-0.35Q123.14-1.47 122.24-3.46L122.24-3.46L122.24-3.46Q119.81-1.54 116.80-0.38L116.80-0.38L116.80-0.38Q113.79 0.77 109.76 0.77L109.76 0.77L109.76 0.77Q97.86 0.77 97.86-8.70L97.86-8.70L97.86-8.70Q97.86-13.63 100.51-16.22L100.51-16.22L100.51-16.22Q103.17-18.82 108.16-19.78L108.16-19.78L108.16-19.78Q113.15-20.74 121.22-20.74L121.22-20.74L121.22-22.40L121.22-22.40Q121.22-24.38 119.84-25.41L119.84-25.41L119.84-25.41Q118.46-26.43 116.29-26.43L116.29-26.43L116.29-26.43Q114.30-26.43 112.86-25.73L112.86-25.73L112.86-25.73Q111.42-25.02 111.42-23.49L111.42-23.49L111.42-23.23L98.88-23.23L98.88-23.23Q98.82-23.55 98.82-24.13L98.82-24.13L98.82-24.13Q98.82-28.93 103.39-31.74L103.39-31.74L103.39-31.74Q107.97-34.56 116.48-34.56L116.48-34.56ZM121.22-14.72L121.22-14.72Q115.78-14.72 113.18-13.54L113.18-13.54L113.18-13.54Q110.59-12.35 110.59-10.37L110.59-10.37L110.59-10.37Q110.59-7.17 114.94-7.17L114.94-7.17L114.94-7.17Q117.44-7.17 119.33-8.51L119.33-8.51L119.33-8.51Q121.22-9.86 121.22-11.84L121.22-11.84L121.22-14.72ZM158.53-34.56L158.53-34.56Q165.31-34.56 170.02-31.90L170.02-31.90L170.02-31.90Q174.72-29.25 174.72-23.68L174.72-23.68L162.88-23.68L162.88-23.68Q162.88-25.54 161.22-26.30L161.22-26.30L161.22-26.30Q160.06-26.94 158.34-26.94L158.34-26.94L158.34-26.94Q153.73-26.94 153.73-24.77L153.73-24.77L153.73-24.77Q153.73-23.55 155.33-23.04L155.33-23.04L155.33-23.04Q156.93-22.53 160.58-21.95L160.58-21.95L160.58-21.95Q165.06-21.31 168.06-20.45L168.06-20.45L168.06-20.45Q171.07-19.58 173.31-17.38L173.31-17.38L173.31-17.38Q175.55-15.17 175.55-11.20L175.55-11.20L175.55-11.20Q175.55-4.74 170.72-1.98L170.72-1.98L170.72-1.98Q165.89 0.77 158.08 0.77L158.08 0.77L158.08 0.77Q153.60 0.77 149.63-0.48L149.63-0.48L149.63-0.48Q145.66-1.73 143.17-4.35L143.17-4.35L143.17-4.35Q140.67-6.98 140.67-11.01L140.67-11.01L152.51-11.01L152.51-10.75L152.51-10.75Q152.58-8.58 154.34-7.71L154.34-7.71L154.34-7.71Q156.10-6.85 158.08-6.85L158.08-6.85L158.08-6.85Q163.39-6.85 163.39-9.34L163.39-9.34L163.39-9.34Q163.39-10.62 161.73-11.20L161.73-11.20L161.73-11.20Q160.06-11.78 156.29-12.42L156.29-12.42L156.29-12.42Q151.74-13.18 148.83-14.08L148.83-14.08L148.83-14.08Q145.92-14.98 143.74-17.12L143.74-17.12L143.74-17.12Q141.57-19.26 141.57-23.10L141.57-23.10L141.57-23.10Q141.57-29.31 146.27-31.94L146.27-31.94L146.27-31.94Q150.98-34.56 158.53-34.56L158.53-34.56ZM209.73 8.06L177.73 8.06L177.73 4.10L209.73 4.10L209.73 8.06ZM258.94 0L243.97 0L242.11-6.21L226.69-6.21L224.83 0L210.37 0L226.43-44.03L242.88-44.03L258.94 0ZM234.30-31.74L229.63-16.06L239.17-16.06L234.56-31.74L234.30-31.74Z" fill="#ccc"></path></g></g><style>text {
  font-size: 64px;
  font-family: Arial Black;
  dominant-baseline: central;
  text-anchor: middle;
}</style></svg>